<svg id="Layer_1" data-name="Layer 1" xmlns="http://www.w3.org/2000/svg" viewBox="0 0 666.52 277.18"><defs><style>.cls-1{fill:none;stroke:#39ff14;stroke-miterlimit:10;}.cls-2{fill:#fafafa;}</style></defs><path class="cls-1" d="M13.74,167.79H55.4c17.93,0,33.5,6.43,33.5,23.61,0,9.52-5.07,16.69-14.09,18.79v.25c11.62,2.35,17.06,11.25,17.06,20.4,0,20.77-15.21,26-43.76,26H13.74Zm31.4,24.85v9.76h7.79c3.46,0,5.68-1.73,5.68-4.82s-2.1-4.94-5.56-4.94Zm0,27.69V232h9a5.42,5.42,0,0,0,5.69-5.81c0-3.83-2.35-5.81-5.81-5.81Z"/><path class="cls-1" d="M107.2,167.79h66v26.83H138.6v7H170v20.9H138.6V230h34.74V256.8H107.2Z"/><path class="cls-1" d="M234.41,165.93c30.17,0,47,19.41,47,46.73,0,22.26-12,39.57-33.63,44.51v17.56H221.55V257.29c-22.13-4.57-34.12-22-34.12-44.63C187.43,185.84,204.25,165.93,234.41,165.93Zm0,64.41c10.51,0,14-8.53,14-17.68s-3.46-18.42-14-18.42-14,9.52-14,18.42C220.44,221.94,223.9,230.34,234.41,230.34Z"/><path class="cls-1" d="M328.24,167.79v54.27c0,6.68,3.59,8.9,8.29,8.9s8.65-2.1,8.65-8.9V167.79h31.4v54.15c0,24.85-15.45,36.71-40.05,36.71-26,0-39.69-11.86-39.69-36.71V167.79Z"/><path class="cls-1" d="M393.89,167.79h31.4v89h-31.4Z"/><path class="cls-1" d="M443.21,167.79h66v26.83H474.62v7H506v20.9h-31.4V230h34.73V256.8H443.21Z"/><path class="cls-1" d="M76.45,15.6c47.07,0,68.78,28.91,68.78,64,0,45.1-23.25,66.92-76.65,66.92H16.13V15.6ZM64.93,55.06v52h9.6c12.68,0,19.41-7.82,19.41-25.46S87.21,55.06,74.53,55.06Z"/><path class="cls-1" d="M230.71,12.87c46.88,0,73,28.55,73,68.73,0,39.1-26.51,67.65-73.38,67.65S157.71,120.7,157.71,81.6C157.71,42.15,183.84,12.87,230.71,12.87Zm0,94.74c16.33,0,21.71-12.55,21.71-26S247,54.51,230.71,54.51,209,68.51,209,81.6C209,95.24,214.38,107.61,230.71,107.61Z"/><path class="cls-1" d="M319.08,15.6h41.69L398.61,72V15.6h48V146.52H405l-37.84-52v52h-48Z"/><path class="cls-1" d="M525.21,90.78H466.48V15.32H661.23V90.78H602.5v166H525.21Z"/><path class="cls-2" d="M2.8,157.47H44.46c17.93,0,33.5,6.42,33.5,23.61,0,9.52-5.07,16.69-14.09,18.79v.25c11.62,2.35,17.06,11.25,17.06,20.4,0,20.77-15.21,26-43.76,26H2.8Zm31.4,24.85v9.76H42c3.46,0,5.68-1.73,5.68-4.82s-2.1-4.94-5.56-4.94Zm0,27.69v11.62h9a5.42,5.42,0,0,0,5.69-5.81c0-3.83-2.35-5.81-5.81-5.81Z"/><path class="cls-2" d="M96.26,157.47h66v26.82H127.66v7.05h31.4v20.89h-31.4v7.42H162.4v26.83H96.26Z"/><path class="cls-2" d="M223.47,155.61c30.17,0,47,19.41,47,46.73,0,22.26-12,39.56-33.63,44.51V264.4H210.61V247c-22.13-4.57-34.12-22-34.12-44.63C176.49,175.52,193.31,155.61,223.47,155.61Zm0,64.41c10.51,0,14-8.53,14-17.68s-3.46-18.42-14-18.42-14,9.52-14,18.42C209.5,211.62,213,220,223.47,220Z"/><path class="cls-2" d="M317.3,157.47v54.27c0,6.67,3.59,8.9,8.29,8.9s8.65-2.1,8.65-8.9V157.47h31.4v54.15c0,24.84-15.45,36.71-40.05,36.71-26,0-39.69-11.87-39.69-36.71V157.47Z"/><path class="cls-2" d="M383,157.47h31.4v89H383Z"/><path class="cls-2" d="M432.27,157.47h66v26.82H463.68v7.05h31.4v20.89h-31.4v7.42h34.74v26.83H432.27Z"/><path class="cls-2" d="M65.52,5.28c47.06,0,68.77,28.91,68.77,64,0,45.1-23.25,66.92-76.65,66.92H5.19V5.28ZM54,44.74v52h9.6C76.27,96.74,83,88.92,83,71.28S76.27,44.74,63.59,44.74Z"/><path class="cls-2" d="M219.77,2.55c46.88,0,73,28.55,73,68.73,0,39.1-26.51,67.64-73.38,67.64s-72.62-28.54-72.62-67.64C146.77,31.83,172.9,2.55,219.77,2.55Zm0,94.73c16.33,0,21.71-12.54,21.71-26s-5.38-27.09-21.71-27.09-21.7,14-21.7,27.09C198.07,84.92,203.45,97.28,219.77,97.28Z"/><path class="cls-2" d="M308.14,5.28h41.69l37.84,56.37V5.28h48V136.2H394l-37.84-52v52h-48Z"/><path class="cls-2" d="M455.53,5V80.46h58.73v166h77.29v-166h58.73V5Zm19.15,64.2-4.8-12.54c10.19-3,12.5-6.27,14.23-11.11a19.59,19.59,0,0,1-8.66-1.07C470.07,42,468,37.12,468,31.75c0-9,7.89-16.13,18.85-16.13,13.46,0,21,8.78,21,20.6C507.76,53.78,495.45,65.61,474.68,69.19Z"/></svg>